<svg width="16" height="16" viewBox="0 0 16 16" fill="none" xmlns="http://www.w3.org/2000/svg">
<path d="M7.99325 1.3334C4.31325 1.3334 1.33325 4.32007 1.33325 8.00007C1.33325 11.6801 4.31325 14.6667 7.99325 14.6667C11.6799 14.6667 14.6666 11.6801 14.6666 8.00007C14.6666 4.32007 11.6799 1.3334 7.99325 1.3334ZM7.99992 13.3334C5.05325 13.3334 2.66659 10.9467 2.66659 8.00007C2.66659 5.0534 5.05325 2.66674 7.99992 2.66674C10.9466 2.66674 13.3333 5.0534 13.3333 8.00007C13.3333 10.9467 10.9466 13.3334 7.99992 13.3334Z" fill="#25AEF6"/>
<path d="M8.33325 4.6666H7.33325V8.6666L10.8333 10.7666L11.3333 9.9466L8.33325 8.1666V4.6666Z" fill="#25AEF6"/>
</svg>
