<svg width="16" height="20" viewBox="0 0 16 20" fill="none" xmlns="http://www.w3.org/2000/svg">
<path d="M8 10.0001C6.9 10.0001 6 9.10012 6 8.00012C6 6.90012 6.9 6.00012 8 6.00012C9.1 6.00012 10 6.90012 10 8.00012C10 9.10012 9.1 10.0001 8 10.0001ZM14 8.20012C14 4.57012 11.35 2.00012 8 2.00012C4.65 2.00012 2 4.57012 2 8.20012C2 10.5401 3.95 13.6401 8 17.3401C12.05 13.6401 14 10.5401 14 8.20012ZM8 0.00012207C12.2 0.00012207 16 3.22012 16 8.20012C16 11.5201 13.33 15.4501 8 20.0001C2.67 15.4501 0 11.5201 0 8.20012C0 3.22012 3.8 0.00012207 8 0.00012207Z" fill="white"/>
</svg>
