<svg width="14" height="12" viewBox="0 0 14 12" fill="none" xmlns="http://www.w3.org/2000/svg">
<path d="M8.99992 8.66663H10.9999C11.3666 8.66663 11.6666 8.36663 11.6666 7.99996V3.99996C11.6666 3.63329 11.3666 3.33329 10.9999 3.33329H8.99992C8.63325 3.33329 8.33325 3.63329 8.33325 3.99996V7.99996C8.33325 8.36663 8.63325 8.66663 8.99992 8.66663ZM9.66659 4.66663H10.3333V7.33329H9.66659V4.66663ZM4.99992 8.66663H6.99992C7.36659 8.66663 7.66659 8.36663 7.66659 7.99996V3.99996C7.66659 3.63329 7.36659 3.33329 6.99992 3.33329H4.99992C4.63325 3.33329 4.33325 3.63329 4.33325 3.99996V7.99996C4.33325 8.36663 4.63325 8.66663 4.99992 8.66663ZM5.66659 4.66663H6.33325V7.33329H5.66659V4.66663ZM2.33325 3.33329H3.66659V8.66663H2.33325V3.33329ZM0.333252 0.666626V11.3333H13.6666V0.666626H0.333252ZM12.3333 9.99996H1.66659V1.99996H12.3333V9.99996Z" fill="#25AEF6"/>
</svg>
