<svg width="14" height="10" viewBox="0 0 14 10" fill="none" xmlns="http://www.w3.org/2000/svg">
<path d="M4.99992 6.16671C3.43992 6.16671 0.333252 6.94671 0.333252 8.50004V9.66671H9.66659V8.50004C9.66659 6.94671 6.55992 6.16671 4.99992 6.16671ZM1.89325 8.33337C2.45325 7.94671 3.80659 7.50004 4.99992 7.50004C6.19325 7.50004 7.54659 7.94671 8.10659 8.33337H1.89325ZM4.99992 5.00004C6.28659 5.00004 7.33325 3.95337 7.33325 2.66671C7.33325 1.38004 6.28659 0.333374 4.99992 0.333374C3.71325 0.333374 2.66659 1.38004 2.66659 2.66671C2.66659 3.95337 3.71325 5.00004 4.99992 5.00004ZM4.99992 1.66671C5.55325 1.66671 5.99992 2.11337 5.99992 2.66671C5.99992 3.22004 5.55325 3.66671 4.99992 3.66671C4.44659 3.66671 3.99992 3.22004 3.99992 2.66671C3.99992 2.11337 4.44659 1.66671 4.99992 1.66671ZM9.69325 6.20671C10.4666 6.76671 10.9999 7.51337 10.9999 8.50004V9.66671H13.6666V8.50004C13.6666 7.15337 11.3333 6.38671 9.69325 6.20671ZM8.99992 5.00004C10.2866 5.00004 11.3333 3.95337 11.3333 2.66671C11.3333 1.38004 10.2866 0.333374 8.99992 0.333374C8.63992 0.333374 8.30659 0.420041 7.99992 0.566707C8.41992 1.16004 8.66659 1.88671 8.66659 2.66671C8.66659 3.44671 8.41992 4.17337 7.99992 4.76671C8.30659 4.91337 8.63992 5.00004 8.99992 5.00004Z" fill="#25AEF6"/>
</svg>
